<?xml version="1.0" encoding="UTF-8"?>
<svg width="152px" height="34px" viewBox="0 0 152 34" version="1.1" xmlns="http://www.w3.org/2000/svg" xmlns:xlink="http://www.w3.org/1999/xlink">
    <!-- Generator: Sketch 51 (57462) - http://www.bohemiancoding.com/sketch -->
    <title>Slice 1</title>
    <desc>Created with Sketch.</desc>
    <defs></defs>
    <g id="Page-1" stroke="none" stroke-width="1" fill="none" fill-rule="evenodd">
        <g id="logo" transform="translate(1.000000, 1.000000)">
            <path d="M48.3731999,24.0935315 C51.6075896,24.0935315 53.4906248,22.3050515 54.5318325,20.4724115 L51.8291231,19.1696915 C51.2088292,20.3620115 49.879628,21.3114514 48.3731999,21.3114514 C45.6704905,21.3114514 43.7209952,19.2580115 43.7209952,16.4759315 C43.7209952,13.6938515 45.6704905,11.6404115 48.3731999,11.6404115 C49.879628,11.6404115 51.2088292,12.5898515 51.8291231,13.7821715 L54.5318325,12.4573715 C53.4906248,10.6026515 51.6075896,8.85833145 48.3731999,8.85833145 C43.9203754,8.85833145 40.4866053,11.9274515 40.4866053,16.4759315 C40.4866053,21.0023314 43.9203754,24.0935315 48.3731999,24.0935315 Z M68.399833,23.8285714 L65.0546763,18.2202514 C66.6497179,17.8448914 68.3112196,16.4317714 68.3112196,13.8484115 C68.3112196,11.1104915 66.406031,9.10121145 63.3267146,9.10121145 L56.4148677,9.10121145 L56.4148677,23.8285714 L59.5606442,23.8285714 L59.5606442,18.5956114 L61.8645931,18.5956114 L64.7666827,23.8285714 L68.399833,23.8285714 Z M62.8836475,15.8356115 L59.5606442,15.8356115 L59.5606442,11.8612115 L62.8836475,11.8612115 C64.1242354,11.8612115 65.0768297,12.6119315 65.0768297,13.8263315 C65.0768297,15.0848915 64.1242354,15.8356115 62.8836475,15.8356115 Z M81.1158591,23.8285714 L81.1158591,21.0685715 L73.8052518,21.0685715 L73.8052518,17.7124115 L80.9607856,17.7124115 L80.9607856,14.9524115 L73.8052518,14.9524115 L73.8052518,11.8612115 L81.1158591,11.8612115 L81.1158591,9.10121145 L70.6594753,9.10121145 L70.6594753,23.8285714 L81.1158591,23.8285714 Z M90.5974952,24.0935315 C95.0503197,24.0935315 98.3068629,20.9140115 98.3068629,16.4759315 C98.3068629,12.0378515 95.0503197,8.85833145 90.5974952,8.85833145 C86.1225174,8.85833145 82.8659741,12.0378515 82.8659741,16.4759315 C82.8659741,20.9140115 86.1225174,24.0935315 90.5974952,24.0935315 Z M90.5974952,21.3114514 C87.8504791,21.3114514 86.100364,19.2138514 86.100364,16.4759315 C86.100364,13.7159315 87.8504791,11.6404115 90.5974952,11.6404115 C93.3223579,11.6404115 95.072473,13.7159315 95.072473,16.4759315 C95.072473,19.2138514 93.3223579,21.3114514 90.5974952,21.3114514 Z M109.752282,23.8285714 L109.752282,22.1946515 L102.884741,22.1946515 L102.884741,9.10121145 L101.046013,9.10121145 L101.046013,23.8285714 L109.752282,23.8285714 Z M124.86087,23.8285714 L118.923771,9.10121145 L116.641975,9.10121145 L110.682723,23.8285714 L112.787291,23.8285714 L114.094339,20.5386515 L121.449253,20.5386515 L122.756301,23.8285714 L124.86087,23.8285714 Z M120.917573,18.9268115 L114.648173,18.9268115 L117.771796,10.9780115 L120.917573,18.9268115 Z M133.522832,23.8285714 C136.225541,23.8285714 137.79843,22.2167315 137.79843,19.8541715 C137.79843,18.0877715 136.491382,16.4759315 134.918493,16.2330515 C136.269848,15.9460115 137.510436,14.7095315 137.510436,12.8548115 C137.510436,10.6468115 135.937548,9.10121145 133.367759,9.10121145 L126.788212,9.10121145 L126.788212,23.8285714 L133.522832,23.8285714 Z M133.057612,15.4823315 L128.626941,15.4823315 L128.626941,10.7351315 L133.057612,10.7351315 C134.719113,10.7351315 135.605247,11.7949715 135.605247,13.1197715 C135.605247,14.4666515 134.719113,15.4823315 133.057612,15.4823315 Z M133.168378,22.1946515 L128.626941,22.1946515 L128.626941,17.1162515 L133.168378,17.1162515 C134.9628,17.1162515 135.893241,18.3085715 135.893241,19.6554515 C135.893241,21.2231315 134.874187,22.1946515 133.168378,22.1946515 Z M145.507797,24.0935315 C149.495401,24.0935315 150.957523,21.8855315 150.957523,19.7658514 C150.957523,14.2679315 142.206947,16.1668115 142.206947,12.8548115 C142.206947,11.4637715 143.491842,10.5143315 145.241957,10.5143315 C146.859152,10.5143315 148.409887,11.0442515 149.517555,12.2807315 L150.625223,10.9338515 C149.384635,9.63113145 147.63452,8.85833145 145.397031,8.85833145 C142.472788,8.85833145 140.301759,10.5364115 140.301759,12.9652115 C140.301759,18.2202514 149.052334,16.1005715 149.052334,19.8983315 C149.052334,21.0464915 148.210507,22.4596115 145.574257,22.4596115 C143.491842,22.4596115 141.8968,21.4439315 140.944206,20.3399315 L139.836538,21.7530515 C141.054973,23.1220115 142.960162,24.0935315 145.507797,24.0935315 Z" id="CREOLABS-Outline" fill="#784A9A" fill-rule="nonzero"></path>
            <g id="Creolabs">
                <ellipse id="Oval-1" stroke="#784A9A" stroke-width="1.886" cx="16.1705662" cy="16" rx="16.1705662" ry="16"></ellipse>
                <path d="M6.89203827,16.1153199 C6.89203827,21.7345268 10.7663526,25.9486992 16.9117602,25.9486992 C20.1449325,25.9486992 22.3893304,24.6235957 23.5917026,23.6958371 C24.3129656,23.1392854 24.3398004,22.3970785 23.8321701,21.6548716 L23.083898,20.6213199 C22.5228421,19.826044 21.8281699,19.7995957 21.026542,20.3561475 C20.1181674,20.9923199 18.7287185,21.7078716 17.1254974,21.7078716 C13.438225,21.7078716 11.7282225,18.8188371 11.7282225,16.0093199 C11.7282225,13.279182 13.3047481,10.6023199 17.1254974,10.6023199 C18.5417811,10.6023199 19.7975093,11.1588716 20.6792233,11.6623544 C21.5076163,12.1659751 22.1755932,12.0865957 22.6832235,11.2648716 L23.3512351,10.1780785 C23.8321701,9.40952679 23.7787445,8.69387164 23.030577,8.16369919 C21.9083606,7.39497509 19.8510046,6.36145784 16.9117602,6.36145784 C11.0067852,6.36145784 6.89203827,10.6023199 6.89203827,16.1153199" id="Shape" fill="#784A9A" fill-rule="nonzero" transform="translate(15.535143, 16.155079) rotate(2.000000) translate(-15.535143, -16.155079) "></path>
            </g>
        </g>
    </g>
</svg>